<svg width="44" height="44" viewBox="0 0 44 44" fill="none" xmlns="http://www.w3.org/2000/svg">
<circle cx="22" cy="22" r="22" fill="white"/>
<path d="M29.8442 23.1781C29.5903 22.5941 29.1993 22.0813 28.4172 21.6496C28.013 21.4211 27.5789 21.2502 27.1274 21.1418C27.4312 21.0007 27.7106 20.8121 27.9551 20.5832C28.3146 20.2618 28.5871 19.8548 28.7473 19.4C28.8948 18.9378 28.955 18.4522 28.925 17.968C28.8692 17.1148 28.7016 16.2871 28.2547 15.693C27.8079 15.0988 27.1782 14.6418 26.3454 14.3219C25.7055 14.0781 25.0504 13.9258 24.0348 13.8699V10.625H22.0036V13.875H20.3786V10.625H18.2965V13.875H13.875V16.3125H15.2903C15.7321 16.3125 16.0317 16.3531 16.184 16.4293C16.3258 16.4899 16.4423 16.5975 16.5141 16.734C16.5801 16.8609 16.6106 17.1605 16.6106 17.6227V26.418C16.6106 26.875 16.5801 27.1695 16.5141 27.3016C16.4481 27.4336 16.4125 27.5504 16.2551 27.6215C16.0977 27.6926 16.0926 27.6875 15.6559 27.6875H14.3153L13.875 30.125H18.293V33.375H20.375V30.125H22V33.375H24.0312V30.1047C25.3516 30.0387 26.291 29.866 27.0477 29.5816C28.0277 29.216 28.7793 28.6828 29.3176 27.982C29.8559 27.2812 30.0285 26.2098 30.0757 25.382C30.1098 24.6457 30.0742 23.6961 29.8442 23.1781ZM20.375 16.6172H22V20.375H20.375V16.6172ZM20.375 27.3828V22.8125H22V27.3828H20.375ZM24.0312 16.8152C24.3359 16.9422 24.534 17.1961 24.732 17.4602C24.9504 17.7496 25.0621 18.1355 25.0621 18.5469C25.0621 18.943 24.9148 19.2832 24.6812 19.5879C24.4883 19.8367 24.3359 20.0094 24.0312 20.1516V16.8152ZM25.4937 26.2961C25.0977 26.6465 24.8691 26.809 24.3715 26.9969C24.2602 27.0361 24.1466 27.0683 24.0312 27.0934V22.8887C24.2299 22.9181 24.4232 22.9762 24.6051 23.0613C25.0012 23.2289 25.377 23.4117 25.6105 23.7316C25.8696 24.0991 26.0112 24.5364 26.0168 24.9859C26.0153 25.5395 25.8731 25.9609 25.4922 26.2961H25.4937Z" fill="url(#paint0_linear)"/>
<defs>
<linearGradient id="paint0_linear" x1="30" y1="22" x2="14" y2="22" gradientUnits="userSpaceOnUse">
<stop stop-color="#A754E2"/>
<stop offset="1" stop-color="#647DEE"/>
</linearGradient>
</defs>
</svg>
