<svg width="1920" height="362" viewBox="0 0 1920 362" fill="none" xmlns="http://www.w3.org/2000/svg">
<path fill-rule="evenodd" clip-rule="evenodd" d="M1920 128.198L1867 109.277C1813 89.6811 1707 50.4888 1600 24.8111C1493 -1.54236 1387 -14.3812 1280 24.8111C1173 63.3277 1067 154.551 960 206.582C853 257.938 747 271.452 640 245.099C533 219.421 427 154.551 320 167.39C213 180.229 107 271.452 53 316.726L0 362V362H53C107 362 213 362 320 362C427 362 533 362 640 362C747 362 853 362 960 362C1067 362 1173 362 1280 362C1387 362 1493 362 1600 362C1707 362 1813 362 1867 362H1920V128.198Z" fill="white"/>
</svg>
